<svg width="33" height="32" viewBox="0 0 33 32" fill="none" xmlns="http://www.w3.org/2000/svg">
<path d="M16.5 21.3333L21.8333 16L16.5 10.6667L14.6333 12.5333L16.7666 14.6667H11.1666V17.3333H16.7666L14.6333 19.4667L16.5 21.3333ZM16.5 29.3333C14.6555 29.3333 12.9222 28.9833 11.3 28.2833C9.67774 27.5833 8.26663 26.6333 7.06663 25.4333C5.86663 24.2333 4.91663 22.8222 4.21663 21.2C3.51663 19.5778 3.16663 17.8444 3.16663 16C3.16663 14.1556 3.51663 12.4222 4.21663 10.8C4.91663 9.17778 5.86663 7.76667 7.06663 6.56667C8.26663 5.36667 9.67774 4.41667 11.3 3.71667C12.9222 3.01667 14.6555 2.66667 16.5 2.66667C18.3444 2.66667 20.0777 3.01667 21.7 3.71667C23.3222 4.41667 24.7333 5.36667 25.9333 6.56667C27.1333 7.76667 28.0833 9.17778 28.7833 10.8C29.4833 12.4222 29.8333 14.1556 29.8333 16C29.8333 17.8444 29.4833 19.5778 28.7833 21.2C28.0833 22.8222 27.1333 24.2333 25.9333 25.4333C24.7333 26.6333 23.3222 27.5833 21.7 28.2833C20.0777 28.9833 18.3444 29.3333 16.5 29.3333ZM16.5 26.6667C19.4777 26.6667 22 25.6333 24.0666 23.5667C26.1333 21.5 27.1666 18.9778 27.1666 16C27.1666 13.0222 26.1333 10.5 24.0666 8.43334C22 6.36667 19.4777 5.33334 16.5 5.33334C13.5222 5.33334 11 6.36667 8.93329 8.43334C6.86663 10.5 5.83329 13.0222 5.83329 16C5.83329 18.9778 6.86663 21.5 8.93329 23.5667C11 25.6333 13.5222 26.6667 16.5 26.6667Z" fill="black"/>
</svg>
